HIERARCHY
ROOT Hips
{
	OFFSET -0.001795 -0.223333 0.028219
	CHANNELS 6 Xposition Yposition Zposition Zrotation Yrotation Xrotation 
	JOINT LeftUpLeg
	{
		OFFSET 0.069520 -0.091406 -0.006815
		CHANNELS 3 Zrotation Yrotation Xrotation
		JOINT LeftLeg
		{
			OFFSET 0.034277 -0.375199 -0.004496
			CHANNELS 3 Zrotation Yrotation Xrotation
			JOINT LeftFoot
			{
				OFFSET -0.013596 -0.397961 -0.043693
				CHANNELS 3 Zrotation Yrotation Xrotation
				JOINT LeftToe
				{
					OFFSET 0.026358 -0.055791 0.119288
					CHANNELS 3 Zrotation Yrotation Xrotation
					End Site
					{
						OFFSET 0.000000 0.000000 0.000000
					}
				}
			}
		}
	}
	JOINT RightUpLeg
	{
		OFFSET -0.067670 -0.090522 -0.004320
		CHANNELS 3 Zrotation Yrotation Xrotation
		JOINT RightLeg
		{
			OFFSET -0.038290 -0.382569 -0.008850
			CHANNELS 3 Zrotation Yrotation Xrotation
			JOINT RightFoot
			{
				OFFSET 0.015774 -0.398415 -0.042312
				CHANNELS 3 Zrotation Yrotation Xrotation
				JOINT RightToe
				{
					OFFSET -0.025372 -0.048144 0.123348
					CHANNELS 3 Zrotation Yrotation Xrotation
					End Site
					{
						OFFSET 0.000000 0.000000 0.000000
					}
				}
			}
		}
	}
	JOINT Spine
	{
		OFFSET -0.002533 0.108963 -0.026696
		CHANNELS 3 Zrotation Yrotation Xrotation
		JOINT Spine1
		{
			OFFSET 0.005487 0.135180 0.001092
			CHANNELS 3 Zrotation Yrotation Xrotation
			JOINT Spine2
			{
				OFFSET 0.001457 0.052922 0.025425
				CHANNELS 3 Zrotation Yrotation Xrotation
				JOINT Neck
				{
					OFFSET -0.002778 0.213870 -0.042857
					CHANNELS 3 Zrotation Yrotation Xrotation
					JOINT Head
					{
						OFFSET 0.005152 0.064970 0.051349
						CHANNELS 3 Zrotation Yrotation Xrotation
						End Site
						{
							OFFSET 0.000000 0.000000 0.000000
						}
					}
				}
				JOINT LeftShoulder
				{
					OFFSET 0.078845 0.121749 -0.034090
					CHANNELS 3 Zrotation Yrotation Xrotation
					JOINT LeftArm
					{
						OFFSET 0.090977 0.030469 -0.008868
						CHANNELS 3 Zrotation Yrotation Xrotation
						JOINT LeftForeArm
						{
							OFFSET 0.259612 -0.012772 -0.027456
							CHANNELS 3 Zrotation Yrotation Xrotation
							JOINT LeftHand
							{
								OFFSET 0.249234 0.008986 -0.001171
								CHANNELS 3 Zrotation Yrotation Xrotation
								End Site
								{
									OFFSET 0.000000 0.000000 0.000000
								}
							}
						}
					}
				}
				JOINT RightShoulder
				{
					OFFSET -0.081759 0.118833 -0.038615
					CHANNELS 3 Zrotation Yrotation Xrotation
					JOINT RightArm
					{
						OFFSET -0.096012 0.032551 -0.009143
						CHANNELS 3 Zrotation Yrotation Xrotation
						JOINT RightForeArm
						{
							OFFSET -0.253742 -0.013329 -0.021401
							CHANNELS 3 Zrotation Yrotation Xrotation
							JOINT RightHand
							{
								OFFSET -0.255298 0.007772 -0.005559
								CHANNELS 3 Zrotation Yrotation Xrotation
								End Site
								{
									OFFSET 0.000000 0.000000 0.000000
								}
							}
						}
					}
				}
			}
		}
	}
}
MOTION
Frames: 11
Frame Time: 0.050000
0.000000 0.902561 0.000000 -1.924222 4.484993 -6.433035 -6.355040 1.754793 12.738922 1.924302 -1.082353 14.393476 9.871773 20.379632 17.976388 0.000000 0.000000 0.000000 -0.468992 2.060227 -23.414097 7.989379 -6.350818 72.920376 -8.893480 -20.964653 18.782959 0.000000 0.000000 0.000000 1.461957 -0.530424 9.745576 2.883687 -3.068955 17.421674 -3.847584 -5.468923 -15.140990 1.174570 -1.184899 5.870854 0.000000 0.000000 0.000000 -29.822323 -11.045648 4.045358 -27.323698 2.550133 -2.660090 -90.267007 -56.381641 59.943613 0.000000 0.000000 0.000000 20.198105 5.607804 -0.222475 26.101998 -21.973738 -5.241702 76.279292 42.788808 34.282174 0.000000 0.000000 0.000000 
-0.002458 0.934014 0.002809 -3.759613 3.843642 -4.287241 -3.011103 2.079703 19.510706 2.147707 -0.722439 8.455267 1.143862 2.287917 -0.227312 0.000000 0.000000 0.000000 2.576268 3.125398 -27.398683 7.481107 -4.063815 56.320267 -10.368123 -23.386907 13.958159 0.000000 0.000000 0.000000 4.262684 -0.521971 6.765882 2.468198 -2.806081 18.361320 -2.182989 -9.182910 -16.648950 -1.260153 1.099504 5.434456 0.000000 0.000000 0.000000 -26.177815 -12.333661 6.383551 -29.885047 -1.861011 -2.279083 -109.007401 -59.654469 83.216049 0.000000 0.000000 0.000000 13.900939 3.543594 -1.382738 25.123535 -26.315383 -5.748318 82.921360 35.934986 30.218297 0.000000 0.000000 0.000000 
-0.006382 0.963378 0.007162 -2.970039 3.755357 -2.154977 -2.934799 2.368583 22.232536 3.975174 -0.835743 5.679920 -2.856175 -3.908930 3.511118 0.000000 0.000000 0.000000 2.823622 3.240864 -27.957870 5.269972 -1.469548 35.734406 -8.194853 -19.551362 17.902810 0.000000 0.000000 0.000000 2.171308 -0.352144 5.736449 7.658594 -5.473240 12.188623 -5.562012 -11.806121 -13.785403 -0.862828 0.901881 6.990749 0.000000 0.000000 0.000000 -26.876038 -12.310818 7.076740 -26.612984 -0.474581 -2.569965 -113.093503 -58.428499 86.947544 0.000000 0.000000 0.000000 12.905321 2.849532 -1.668811 20.467585 -27.542808 -4.738758 84.049470 33.627293 28.459591 0.000000 0.000000 0.000000 
-0.010677 0.984575 0.011827 -2.978384 3.021904 -0.729786 -1.278123 2.037509 21.715099 2.705578 -1.109370 12.824259 -3.469389 -4.086523 5.392397 0.000000 0.000000 0.000000 6.178366 3.767867 -25.944153 0.345396 0.598048 22.140450 -6.708964 -17.354937 21.608022 0.000000 0.000000 0.000000 2.592532 -0.260375 3.824543 7.235849 -5.303624 13.518847 -4.107181 -12.517529 -14.900179 -3.488390 3.282209 9.952058 0.000000 0.000000 0.000000 -25.069674 -11.464750 6.847736 -28.303974 -0.482517 -2.777249 -109.834426 -54.035733 78.822241 0.000000 0.000000 0.000000 11.063870 4.223599 -0.940551 20.140684 -29.132606 -4.934025 88.755917 35.424489 32.286681 0.000000 0.000000 0.000000 
-0.015630 0.983414 0.018239 -2.383697 2.343262 0.863399 -0.889366 1.735308 18.542611 0.698825 -1.303611 25.013445 -2.843734 -0.113706 11.277327 0.000000 0.000000 0.000000 6.984543 3.590365 -23.619268 1.452647 0.233889 18.299258 -6.848617 -17.802236 24.541838 0.000000 0.000000 0.000000 1.379214 -0.127220 2.121052 6.975410 -5.018672 13.351978 -2.548448 -12.098928 -14.243170 -4.423168 3.966461 7.509078 0.000000 0.000000 0.000000 -25.066208 -10.560392 6.536581 -26.952820 3.477455 -3.483356 -106.625452 -52.893092 74.321665 0.000000 0.000000 0.000000 9.807673 3.793036 -0.909156 22.400771 -29.668700 -5.795980 88.944492 38.237960 34.797836 0.000000 0.000000 0.000000 
-0.022523 0.957537 0.025792 -1.584413 0.417539 0.266083 -0.290358 1.234101 13.225651 -2.038032 -0.679797 44.400615 -1.054331 5.883520 21.382463 0.000000 0.000000 0.000000 7.243048 3.408061 -21.688418 3.327092 -0.107196 27.923494 -8.965420 -21.058308 25.584993 0.000000 0.000000 0.000000 0.968921 -0.146572 2.787193 6.073027 -4.361142 14.081073 -2.853036 -10.478017 -12.975141 -6.610810 5.391927 4.552306 0.000000 0.000000 0.000000 -24.034403 -9.415034 5.409193 -26.276707 8.758250 -4.251380 -98.640063 -49.299664 62.066513 0.000000 0.000000 0.000000 12.220391 6.178369 -0.249076 28.241100 -27.328827 -7.036225 85.763572 44.014909 38.681594 0.000000 0.000000 0.000000 
-0.029678 0.920856 0.026519 -1.788114 -1.659716 -2.456496 2.007737 0.518647 6.933083 -3.859040 1.054877 63.582764 1.030952 8.874073 22.641629 0.000000 0.000000 0.000000 9.697353 3.304668 -18.360229 2.159599 0.779349 35.721979 -11.752963 -24.942325 25.728742 0.000000 0.000000 0.000000 0.193700 -0.266699 6.283926 4.728866 -3.429983 15.084118 -1.295653 -4.659184 -12.732178 -5.268925 3.929714 2.116458 0.000000 0.000000 0.000000 -25.150330 -10.178636 4.422019 -25.378158 13.183461 -4.580506 -83.654347 -46.820791 45.935103 0.000000 0.000000 0.000000 16.430664 8.356659 1.089931 31.298763 -20.637247 -6.316943 87.763072 53.004153 50.699059 0.000000 0.000000 0.000000 
-0.034268 0.900220 0.020287 -1.305633 -4.467700 -4.189877 2.686725 -0.312544 -4.854424 -5.298277 4.719836 78.988751 4.869675 13.198161 17.050744 0.000000 0.000000 0.000000 10.441592 2.057793 -11.369230 0.355151 1.625991 30.602843 -14.533522 -29.778926 18.189549 0.000000 0.000000 0.000000 -0.179642 -0.377325 10.322654 2.543245 -1.730881 14.406119 -0.713539 0.006871 -11.403616 -6.452642 4.637707 0.963775 0.000000 0.000000 0.000000 -24.602835 -8.869171 2.498303 -23.621428 17.356212 -4.751107 -71.558893 -42.220265 33.425691 0.000000 0.000000 0.000000 19.246205 11.819023 3.651074 32.380846 -10.472090 -4.343912 87.990575 62.679048 62.023203 0.000000 0.000000 0.000000 
-0.036337 0.910241 0.015689 -0.104365 -6.254093 -4.408488 1.938651 -1.235597 -19.139271 -4.978024 6.035486 83.040543 6.794147 15.728102 14.836836 0.000000 0.000000 0.000000 9.387846 -0.188532 0.118405 -1.841784 1.111746 13.710270 -8.183182 -19.238009 -1.258141 0.000000 0.000000 0.000000 -1.448129 -0.280328 12.451281 -0.323100 0.233083 10.869172 0.835434 6.299425 -7.463997 -5.248235 3.751034 0.604211 0.000000 0.000000 0.000000 -24.230120 -7.742431 0.433557 -20.408120 21.656157 -4.538258 -70.332804 -39.335146 29.707693 0.000000 0.000000 0.000000 15.991337 13.360925 5.777475 34.507354 -3.232037 -3.466003 104.789889 68.998570 87.371795 0.000000 0.000000 0.000000 
-0.037795 0.940478 0.018582 2.246755 -7.558190 -2.652517 -1.040516 -2.376399 -28.879652 -4.816766 5.414395 71.328461 6.326257 15.007188 17.232157 0.000000 0.000000 0.000000 6.002031 -1.455896 9.427205 -2.931367 0.456756 2.601686 -3.082019 -8.028266 1.285937 0.000000 0.000000 0.000000 -3.379066 -0.034797 10.018221 -3.815429 2.421326 10.301136 1.772299 11.032615 -8.595777 -1.986145 0.781088 4.069622 0.000000 0.000000 0.000000 -22.462098 -7.155492 -0.903554 -14.950735 25.692370 -3.348921 -74.620115 -37.216473 29.942673 0.000000 0.000000 0.000000 13.332001 13.722138 6.534932 35.471388 0.325537 -2.725453 116.172513 66.975913 99.619904 0.000000 0.000000 0.000000 
-0.039426 0.976314 0.028345 3.075389 -7.949884 -0.686215 -3.787547 -3.204123 -31.022221 -2.780225 1.911312 47.687503 3.660856 11.380942 22.010156 0.000000 0.000000 0.000000 3.647971 -1.847811 15.573450 -3.603641 0.517775 2.395930 0.043897 -3.588975 6.589345 0.000000 0.000000 0.000000 -3.917681 0.032066 7.711377 -5.458416 3.363711 9.498835 0.729547 14.270147 -9.324801 1.299197 -2.648104 7.229627 0.000000 0.000000 0.000000 -19.269981 -6.348804 -1.725185 -14.272390 28.328358 -3.423992 -79.434167 -37.210155 31.820351 0.000000 0.000000 0.000000 11.784425 13.814193 7.057713 34.818275 1.410132 -2.504355 119.717015 62.021415 100.222836 0.000000 0.000000 0.000000 
